<svg xmlns="http://www.w3.org/2000/svg" viewBox="0 0 256 289" preserveAspectRatio="xMidYMid"><path fill="#539E43" d="M128 288.464c-3.975 0-7.685-1.06-11.13-2.915l-35.247-20.936c-5.3-2.915-2.65-3.975-1.06-4.505 7.155-2.385 8.48-2.915 16.05-7.155.795-.53 1.855-.265 2.65.265l27.032 16.166c1.06.53 2.385.53 3.18 0l105.74-61.217c1.06-.53 1.59-1.59 1.59-2.915V83.08c0-1.325-.53-2.385-1.59-2.915l-105.74-60.953c-1.06-.53-2.385-.53-3.18 0L21.555 80.166c-1.06.53-1.59 1.855-1.59 2.915v122.17c0 1.06.53 2.385 1.59 2.915l28.887 16.695c15.635 7.95 25.44-1.325 25.44-10.6V93.68c0-1.59 1.325-3.18 3.18-3.18h13.515c1.59 0 3.18 1.325 3.18 3.18v120.58c0 20.936-11.395 33.126-31.27 33.126-6.095 0-10.865 0-24.38-6.625L11.13 225.66C4.24 221.685 0 214.265 0 206.315V84.14c0-7.95 4.24-15.37 11.13-19.345L116.87 3.445c6.625-3.71 15.635-3.71 22.26 0l105.74 61.218c6.89 3.975 11.13 11.395 11.13 19.345v122.17c0 7.95-4.24 15.37-11.13 19.345l-105.74 61.218c-3.445 1.855-7.42 2.65-11.13 2.65z"/><path fill="#539E43" d="M160.86 205.52c-46.377 0-55.92-21.2-55.92-39.22 0-1.59 1.325-3.18 3.18-3.18h13.78c1.59 0 2.915 1.06 2.915 2.65 2.12 14.045 8.215 21.07 36.31 21.07 22.26 0 31.8-5.035 31.8-16.96 0-6.89-2.65-11.925-37.37-15.37-28.887-2.915-46.907-9.27-46.907-32.32 0-21.466 18.02-34.186 48.232-34.186 33.92 0 50.617 11.66 52.737 36.84 0 .795-.265 1.59-.795 2.385-.53.53-1.325 1.06-2.12 1.06h-13.78c-1.325 0-2.65-1.06-2.915-2.385-3.18-14.575-11.395-19.345-33.39-19.345-24.645 0-27.56 8.48-27.56 14.84 0 7.685 3.445 10.07 36.31 14.31 32.6 4.24 47.97 10.335 47.97 33.12-.265 23.315-19.345 36.575-53 36.575z"/></svg>
