<svg xmlns="http://www.w3.org/2000/svg" width="24" height="24" viewBox="0 0 24 24" fill="none" stroke="currentColor" stroke-width="2" stroke-linecap="round" stroke-linejoin="round" class="lucide lucide-group"><path d="M10.15,18.31a2.24,2.24,0,0,0,2.33-2.33V8.34h1.2v7.64a3.53,3.53,0,0,1-3.53,3.53H4.41V8.34h1.2V16a2.24,2.24,0,0,0,2.22,2.33Z"/><path d="M20,11.39a3.29,3.29,0,0,1-2.22,3.13L15,15.68v1a.63.63,0,0,1-.62.62H13.16a.63.63,0,0,1-.62-.62v-1l-2.81-1.16a3.29,3.29,0,0,1-2.22-3.13V8.34h1.2v3.05a2.1,2.1,0,0,0,1.49,2l3.47,1.42,3.47-1.42a2.1,2.1,0,0,0,1.49-2V8.34h1.2Z"/></svg>